<svg xmlns="http://www.w3.org/2000/svg" xmlns:xlink="http://www.w3.org/1999/xlink" width="500" zoomAndPan="magnify" viewBox="0 0 375 374.999991" height="500" preserveAspectRatio="xMidYMid meet" version="1.0"><defs><clipPath id="e4dc27bf43"><path d="M 122.378906 120.488281 L 353.488281 120.488281 L 353.488281 352 L 122.378906 352 Z M 122.378906 120.488281 " clip-rule="nonzero"/></clipPath><clipPath id="17bbde62f9"><path d="M 21.496094 120.488281 L 128.675781 120.488281 L 128.675781 351.613281 L 21.496094 351.613281 Z M 21.496094 120.488281 " clip-rule="nonzero"/></clipPath><clipPath id="a02ac9a289"><path d="M 122.335938 23.378906 L 341.097656 23.378906 L 341.097656 130.558594 L 122.335938 130.558594 Z M 122.335938 23.378906 " clip-rule="nonzero"/></clipPath><clipPath id="32741048d4"><path d="M 21.414062 23.367188 L 99.433594 23.367188 L 99.433594 95.253906 L 21.414062 95.253906 Z M 21.414062 23.367188 " clip-rule="nonzero"/></clipPath></defs><g clip-path="url(#e4dc27bf43)"><path fill="#ffffff" d="M 122.378906 223.402344 L 122.378906 120.488281 C 250.015625 120.488281 353.488281 223.957031 353.488281 351.597656 L 250.574219 351.597656 C 250.574219 280.796875 193.179688 223.402344 122.378906 223.402344 Z M 122.378906 223.402344 " fill-opacity="1" fill-rule="nonzero"/></g><g clip-path="url(#17bbde62f9)"><path fill="#ffffff" d="M 21.496094 120.488281 L 128.675781 120.488281 L 128.675781 351.59375 L 21.496094 351.59375 Z M 21.496094 120.488281 " fill-opacity="1" fill-rule="nonzero"/></g><g clip-path="url(#a02ac9a289)"><path fill="#ffffff" d="M 341.097656 23.378906 L 341.097656 130.558594 L 122.132812 130.558594 L 122.132812 23.378906 Z M 341.097656 23.378906 " fill-opacity="1" fill-rule="nonzero"/></g><g clip-path="url(#32741048d4)"><path fill="#3799ff" d="M 99.433594 23.367188 L 99.433594 95.253906 L 21.371094 95.253906 L 21.371094 23.367188 Z M 99.433594 23.367188 " fill-opacity="1" fill-rule="nonzero"/></g></svg>