<svg xmlns="http://www.w3.org/2000/svg" xmlns:xlink="http://www.w3.org/1999/xlink" zoomAndPan="magnify" preserveAspectRatio="xMidYMid meet" version="1.0" viewBox="37.48 152.81 296.64 55.22"><defs><g/><clipPath id="85830a31a9"><path d="M 54.371094 169.121094 L 93.019531 169.121094 L 93.019531 208 L 54.371094 208 Z M 54.371094 169.121094 " clip-rule="nonzero"/></clipPath><clipPath id="0430e183d7"><path d="M 37.5 169.121094 L 55.425781 169.121094 L 55.425781 207.773438 L 37.5 207.773438 Z M 37.5 169.121094 " clip-rule="nonzero"/></clipPath><clipPath id="246df0954c"><path d="M 54.363281 152.878906 L 90.949219 152.878906 L 90.949219 170.804688 L 54.363281 170.804688 Z M 54.363281 152.878906 " clip-rule="nonzero"/></clipPath><clipPath id="fd05333d30"><path d="M 37.488281 152.878906 L 50.535156 152.878906 L 50.535156 164.898438 L 37.488281 164.898438 Z M 37.488281 152.878906 " clip-rule="nonzero"/></clipPath></defs><g clip-path="url(#85830a31a9)"><path fill="#ffffff" d="M 54.371094 186.328125 L 54.371094 169.121094 C 75.71875 169.121094 93.019531 186.421875 93.019531 207.769531 L 75.808594 207.769531 C 75.808594 195.929688 66.210938 186.328125 54.371094 186.328125 Z M 54.371094 186.328125 " fill-opacity="1" fill-rule="nonzero"/></g><g clip-path="url(#0430e183d7)"><path fill="#ffffff" d="M 37.5 169.121094 L 55.425781 169.121094 L 55.425781 207.769531 L 37.5 207.769531 Z M 37.5 169.121094 " fill-opacity="1" fill-rule="nonzero"/></g><g clip-path="url(#246df0954c)"><path fill="#ffffff" d="M 90.949219 152.878906 L 90.949219 170.804688 L 54.332031 170.804688 L 54.332031 152.878906 Z M 90.949219 152.878906 " fill-opacity="1" fill-rule="nonzero"/></g><g clip-path="url(#fd05333d30)"><path fill="#3799ff" d="M 50.535156 152.878906 L 50.535156 164.898438 L 37.480469 164.898438 L 37.480469 152.878906 Z M 50.535156 152.878906 " fill-opacity="1" fill-rule="nonzero"/></g><g fill="#ffffff" fill-opacity="1"><g transform="translate(97.7896, 207.173938)"><g><path d="M 17.6875 -50.90625 L 42.359375 -13.09375 L 42.5 -13.09375 L 42.5 -50.90625 L 51.5625 -50.90625 L 51.5625 0 L 40.046875 0 L 14.890625 -39.046875 L 14.734375 -39.046875 L 14.734375 0 L 5.6875 0 L 5.6875 -50.90625 Z M 17.6875 -50.90625 "/></g></g></g><g fill="#ffffff" fill-opacity="1"><g transform="translate(153.438584, 207.173938)"><g><path d="M 21.9375 -35.375 C 27.207031 -35.375 31.648438 -33.695312 35.265625 -30.34375 C 38.890625 -26.988281 40.703125 -22.625 40.703125 -17.25 C 40.703125 -11.882812 38.890625 -7.523438 35.265625 -4.171875 C 31.648438 -0.816406 27.207031 0.859375 21.9375 0.859375 C 16.65625 0.859375 12.203125 -0.816406 8.578125 -4.171875 C 4.960938 -7.523438 3.15625 -11.882812 3.15625 -17.25 C 3.15625 -22.625 4.960938 -26.988281 8.578125 -30.34375 C 12.203125 -33.695312 16.65625 -35.375 21.9375 -35.375 Z M 11.796875 -17.25 C 11.796875 -14.1875 12.765625 -11.695312 14.703125 -9.78125 C 16.640625 -7.863281 19.050781 -6.90625 21.9375 -6.90625 C 24.851562 -6.90625 27.269531 -7.875 29.1875 -9.8125 C 31.101562 -11.757812 32.0625 -14.238281 32.0625 -17.25 C 32.0625 -20.320312 31.09375 -22.816406 29.15625 -24.734375 C 27.21875 -26.648438 24.785156 -27.609375 21.859375 -27.609375 C 19.023438 -27.609375 16.640625 -26.625 14.703125 -24.65625 C 12.765625 -22.695312 11.796875 -20.226562 11.796875 -17.25 Z M 11.796875 -17.25 "/></g></g></g><g fill="#ffffff" fill-opacity="1"><g transform="translate(195.714481, 207.173938)"><g><path d="M 23.4375 -35.375 C 28.851562 -35.375 32.453125 -33.242188 34.234375 -28.984375 C 36.628906 -33.242188 40.414062 -35.375 45.59375 -35.375 C 53.882812 -35.375 58.03125 -30.363281 58.03125 -20.34375 L 58.03125 0 L 49.40625 0 L 49.40625 -19.78125 C 49.40625 -25 47.269531 -27.609375 43 -27.609375 C 40.695312 -27.609375 38.882812 -26.828125 37.5625 -25.265625 C 36.25 -23.710938 35.59375 -21.523438 35.59375 -18.703125 L 35.59375 0 L 26.96875 0 L 26.96875 -20.78125 C 26.96875 -22.9375 26.460938 -24.613281 25.453125 -25.8125 C 24.441406 -27.007812 22.976562 -27.609375 21.0625 -27.609375 C 18.382812 -27.609375 16.394531 -26.769531 15.09375 -25.09375 C 13.800781 -23.414062 13.15625 -21.332031 13.15625 -18.84375 L 13.15625 0 L 4.53125 0 L 4.53125 -34.515625 L 12.734375 -34.515625 L 12.734375 -29.125 L 12.875 -29.125 C 14.882812 -33.289062 18.40625 -35.375 23.4375 -35.375 Z M 23.4375 -35.375 "/></g></g></g><g fill="#ffffff" fill-opacity="1"><g transform="translate(256.683936, 207.173938)"><g><path d="M 19.484375 -35.375 C 24.421875 -35.375 28.113281 -34.1875 30.5625 -31.8125 C 33.007812 -29.445312 34.234375 -25.722656 34.234375 -20.640625 L 34.234375 0 L 26.46875 0 L 26.46875 -4.75 L 26.25 -4.75 C 23.894531 -1.007812 20.203125 0.859375 15.171875 0.859375 C 11.429688 0.859375 8.398438 -0.109375 6.078125 -2.046875 C 3.753906 -3.992188 2.59375 -6.472656 2.59375 -9.484375 C 2.59375 -13.515625 4.269531 -16.523438 7.625 -18.515625 C 10.976562 -20.503906 16.367188 -21.5 23.796875 -21.5 L 26.46875 -21.5 L 26.46875 -22.5 C 26.46875 -24.519531 25.742188 -26.09375 24.296875 -27.21875 C 22.859375 -28.34375 20.941406 -28.90625 18.546875 -28.90625 C 15.003906 -28.90625 11.9375 -27.707031 9.34375 -25.3125 L 4.8125 -29.84375 C 8.40625 -33.53125 13.296875 -35.375 19.484375 -35.375 Z M 11.21875 -10.140625 C 11.21875 -8.648438 11.828125 -7.519531 13.046875 -6.75 C 14.273438 -5.988281 15.703125 -5.609375 17.328125 -5.609375 C 20.296875 -5.609375 22.472656 -6.335938 23.859375 -7.796875 C 25.253906 -9.265625 25.953125 -11.097656 25.953125 -13.296875 L 25.953125 -15.453125 L 23.4375 -15.453125 C 15.289062 -15.453125 11.21875 -13.679688 11.21875 -10.140625 Z M 11.21875 -10.140625 "/></g></g></g><g fill="#ffffff" fill-opacity="1"><g transform="translate(293.711258, 207.173938)"><g><path d="M 40.40625 -54.359375 L 40.40625 0 L 32.21875 0 L 32.21875 -5.171875 L 32.0625 -5.171875 C 29.664062 -1.148438 25.691406 0.859375 20.140625 0.859375 C 15.003906 0.859375 10.890625 -0.835938 7.796875 -4.234375 C 4.703125 -7.640625 3.15625 -11.976562 3.15625 -17.25 C 3.15625 -22.332031 4.710938 -26.625 7.828125 -30.125 C 10.953125 -33.625 14.957031 -35.375 19.84375 -35.375 C 24.78125 -35.375 28.6875 -33.625 31.5625 -30.125 L 31.78125 -30.125 L 31.78125 -54.359375 Z M 11.796875 -17.25 C 11.796875 -14.1875 12.765625 -11.695312 14.703125 -9.78125 C 16.640625 -7.863281 19.050781 -6.90625 21.9375 -6.90625 C 24.957031 -6.90625 27.398438 -7.898438 29.265625 -9.890625 C 31.128906 -11.878906 32.0625 -14.332031 32.0625 -17.25 C 32.0625 -20.226562 31.09375 -22.695312 29.15625 -24.65625 C 27.21875 -26.625 24.8125 -27.609375 21.9375 -27.609375 C 19.101562 -27.609375 16.703125 -26.632812 14.734375 -24.6875 C 12.773438 -22.75 11.796875 -20.269531 11.796875 -17.25 Z M 11.796875 -17.25 "/></g></g></g></svg>